<svg width="30" height="31" viewBox="0 0 30 31" fill="none" xmlns="http://www.w3.org/2000/svg">
<path d="M16.9677 1.31557C15.8803 0.228142 14.1179 0.228142 13.0304 1.31557L7.58765 6.76023L14.9991 14.1735L22.4124 6.76023L16.9658 1.31557H16.9677ZM23.736 8.08578L16.3265 15.4991L23.7398 22.9124L29.1844 17.4658C30.2719 16.3784 30.2719 14.6179 29.1844 13.5323L23.7398 8.08578H23.736ZM22.4124 24.236L14.9991 16.8265L7.58578 24.2398L13.0323 29.6844C14.1197 30.7719 15.8803 30.7719 16.9658 29.6844L22.4124 24.2398V24.236ZM6.26211 22.9124L13.6716 15.4991L6.26023 8.08578L0.815574 13.5323C-0.271858 14.6197 -0.271858 16.3803 0.815574 17.4658L6.26211 22.9124Z" fill="#4A72FF"/>
</svg>
